<svg width="26" height="24" viewBox="0 0 26 24" fill="none" xmlns="http://www.w3.org/2000/svg">
<path fill-rule="evenodd" clip-rule="evenodd" d="M11.7948 3.78769C12.8298 2.80312 14.2337 2.25 15.6974 2.25H18.5359C18.9714 2.25 19.3244 2.58579 19.3244 3V6.6C19.3244 7.01421 18.9714 7.35 18.5359 7.35H15.6974C15.6556 7.35 15.6155 7.3658 15.5859 7.39393C15.5564 7.42206 15.5398 7.46022 15.5398 7.5V9.45H18.5359C18.7787 9.45 19.008 9.5564 19.1574 9.73844C19.3068 9.92048 19.3597 10.1578 19.3008 10.3819L18.3547 13.9819C18.2669 14.3158 17.9516 14.55 17.5898 14.55H15.5398V21C15.5398 21.4142 15.1867 21.75 14.7513 21.75H10.9667C10.5312 21.75 10.1782 21.4142 10.1782 21V14.55H8.12821C7.69276 14.55 7.33975 14.2142 7.33975 13.8V10.2C7.33975 9.78579 7.69276 9.45 8.12821 9.45H10.1782V7.5C10.1782 6.10761 10.7597 4.77226 11.7948 3.78769ZM15.6974 3.75C14.6519 3.75 13.6491 4.14509 12.9098 4.84835C12.1705 5.55161 11.7551 6.50544 11.7551 7.5V10.2C11.7551 10.6142 11.4021 10.95 10.9667 10.95H8.91668V13.05H10.9667C11.4021 13.05 11.7551 13.3858 11.7551 13.8V20.25H13.9628V13.8C13.9628 13.3858 14.3158 13.05 14.7513 13.05H16.9741L17.5261 10.95H14.7513C14.3158 10.95 13.9628 10.6142 13.9628 10.2V7.5C13.9628 7.06239 14.1456 6.64271 14.4709 6.33327C14.7962 6.02384 15.2374 5.85 15.6974 5.85H17.7474V3.75H15.6974Z" fill="#828282"/>
</svg>
