<svg width="26" height="24" viewBox="0 0 26 24" fill="none" xmlns="http://www.w3.org/2000/svg">
<path fill-rule="evenodd" clip-rule="evenodd" d="M2.36536 12C2.36536 6.61554 6.95477 2.25 12.6154 2.25C15.3171 2.25 17.767 3.25246 19.5953 4.87324C19.7518 5.01197 19.8423 5.20524 19.8461 5.4087C19.8498 5.61216 19.7665 5.80834 19.6152 5.95223L16.939 8.49788C16.6438 8.77876 16.1695 8.79193 15.8575 8.52792C14.9921 7.79565 13.8598 7.35 12.6154 7.35C9.91573 7.35 7.72689 9.43206 7.72689 12C7.72689 14.5679 9.91573 16.65 12.6154 16.65C14.3225 16.65 15.824 15.8153 16.6973 14.55H12.6154C12.1799 14.55 11.8269 14.2142 11.8269 13.8V10.2C11.8269 9.78579 12.1799 9.45 12.6154 9.45H21.8929C22.2693 9.45 22.5932 9.70305 22.6663 10.0543C22.7951 10.6728 22.8654 11.348 22.8654 12C22.8654 17.3845 18.2759 21.75 12.6154 21.75C6.95477 21.75 2.36536 17.3845 2.36536 12ZM12.6154 3.75C7.82568 3.75 3.94228 7.44396 3.94228 12C3.94228 16.556 7.82568 20.25 12.6154 20.25C17.405 20.25 21.2884 16.556 21.2884 12C21.2884 11.6525 21.2648 11.2961 21.2204 10.95H13.4038V13.05H17.9625C18.2186 13.05 18.4587 13.1683 18.6064 13.3671C18.7542 13.566 18.7912 13.8208 18.7058 14.0503C17.8183 16.4346 15.4322 18.15 12.6154 18.15C9.04482 18.15 6.14997 15.3964 6.14997 12C6.14997 8.60364 9.04482 5.85 12.6154 5.85C13.996 5.85 15.2722 6.26519 16.3197 6.96571L17.8958 5.46644C16.4321 4.39163 14.6041 3.75 12.6154 3.75Z" fill="#828282"/>
</svg>
