<svg width="27" height="24" viewBox="0 0 27 24" fill="none" xmlns="http://www.w3.org/2000/svg">
<path d="M17.7436 7.00005C17.7436 6.44776 18.2142 6.00005 18.7948 6.00005C19.3755 6.00005 19.8461 6.44776 19.8461 7.00005C19.8461 7.55233 19.3755 8.00005 18.7948 8.00005C18.2142 8.00005 17.7436 7.55233 17.7436 7.00005Z" fill="#828282"/>
<path fill-rule="evenodd" clip-rule="evenodd" d="M13.5384 7.25005C10.7806 7.25005 8.54485 9.37669 8.54485 12C8.54485 14.6234 10.7806 16.75 13.5384 16.75C16.2963 16.75 18.532 14.6234 18.532 12C18.532 9.37669 16.2963 7.25005 13.5384 7.25005ZM10.1218 12C10.1218 10.2051 11.6515 8.75005 13.5384 8.75005C15.4254 8.75005 16.9551 10.2051 16.9551 12C16.9551 13.795 15.4254 15.25 13.5384 15.25C11.6515 15.25 10.1218 13.795 10.1218 12Z" fill="#828282"/>
<path fill-rule="evenodd" clip-rule="evenodd" d="M19.0663 2.83306C15.422 2.44562 11.6549 2.44562 8.01056 2.83306C5.89532 3.05794 4.18768 4.64295 3.939 6.66548C3.5032 10.2098 3.5032 13.7903 3.939 17.3346C4.18768 19.3571 5.89532 20.9422 8.01056 21.167C11.6549 21.5545 15.422 21.5545 19.0663 21.167C21.1816 20.9422 22.8892 19.3571 23.1379 17.3346C23.5737 13.7903 23.5737 10.2098 23.1379 6.66548C22.8892 4.64295 21.1816 3.05794 19.0663 2.83306ZM8.18571 4.32378C11.7137 3.94871 15.3633 3.94871 18.8912 4.32378C20.2895 4.47244 21.4096 5.52205 21.5717 6.83973C21.9932 10.2683 21.9932 13.7318 21.5717 17.1604C21.4096 18.478 20.2895 19.5277 18.8912 19.6763C15.3633 20.0514 11.7137 20.0514 8.18571 19.6763C6.78739 19.5277 5.66726 18.478 5.50525 17.1604C5.08368 13.7318 5.08368 10.2683 5.50525 6.83973C5.66726 5.52205 6.78739 4.47244 8.18571 4.32378Z" fill="#828282"/>
</svg>
