<svg width="27" height="24" viewBox="0 0 27 24" fill="none" xmlns="http://www.w3.org/2000/svg">
<path fill-rule="evenodd" clip-rule="evenodd" d="M16.638 3.3434C17.1724 3.25632 17.7709 3.22724 18.3342 3.31789C19.3401 3.47977 20.2693 3.9245 21.0037 4.59126C21.4839 4.60158 21.9557 4.51161 22.3732 4.38335C22.7265 4.2748 23.025 4.14373 23.2342 4.04009C23.3382 3.98856 23.4185 3.9446 23.4707 3.91484C23.4968 3.89998 23.5158 3.88874 23.527 3.88195L23.537 3.87589C23.849 3.67816 24.2645 3.71664 24.5304 3.96815C24.7963 4.21971 24.8391 4.61463 24.6328 4.91254C24.4144 5.22783 24.1113 5.7899 23.7717 6.41966C23.7183 6.51868 23.664 6.61937 23.6089 6.72104C23.4141 7.08101 23.2144 7.44482 23.0282 7.75695C22.9113 7.95294 22.7863 8.15191 22.6603 8.32385V8.59763C22.6683 9.60326 22.547 10.6036 22.3009 11.5769C22.1461 12.1892 21.9419 12.7908 21.6893 13.3762C21.035 14.8928 20.0695 16.2703 18.8492 17.428C17.629 18.5858 16.1784 19.5006 14.5823 20.1192C12.9876 20.7372 11.2795 21.047 9.5577 21.0305C7.06162 21.0326 4.61806 20.3485 2.52104 19.0606C2.21218 18.8709 2.08213 18.5033 2.20759 18.1746C2.33305 17.8459 2.6807 17.6433 3.04557 17.6862C3.36133 17.7234 3.67925 17.7415 3.99742 17.7405C5.14064 17.7375 6.26209 17.4972 7.28589 17.0446C6.96046 16.9037 6.64977 16.7299 6.35946 16.5251C5.50611 15.9232 4.87124 15.0833 4.54316 14.1221C4.45791 13.8724 4.51619 13.5984 4.69682 13.3998C4.70005 13.3963 4.70332 13.3927 4.70662 13.3892C4.51368 13.2256 4.33314 13.0474 4.16694 12.8558C3.41914 11.9936 3.00738 10.9121 3.0013 9.7944L3.00128 9.79053L3.00129 9.74053C3.00129 9.47466 3.14926 9.22867 3.39022 9.09395C3.4513 9.05979 3.51604 9.03409 3.58264 9.01685C3.22696 8.34177 3.04199 7.59632 3.04334 6.84006C3.04292 5.98329 3.2782 5.14133 3.72579 4.39782C3.85501 4.18319 4.08716 4.04295 4.34633 4.02298C4.6055 4.003 4.85836 4.10585 5.02222 4.2979C6.03413 5.48391 7.29703 6.45417 8.72886 7.14564C9.4649 7.50109 10.2371 7.77879 11.0317 7.97522C11.4771 8.08535 11.9296 8.16994 12.3867 8.22836C12.3666 7.50511 12.5167 6.78224 12.8318 6.11431C13.294 5.13448 14.0851 4.3283 15.0809 3.82221C15.5026 3.60788 16.0624 3.43717 16.638 3.3434ZM4.7814 10.8909C4.9177 11.2558 5.12045 11.5981 5.38333 11.9012C5.89985 12.4967 6.61677 12.9043 7.41282 13.0549C7.7674 13.122 8.02858 13.4099 8.04648 13.7534C8.06438 14.0969 7.83441 14.4079 7.48854 14.508C7.20207 14.591 6.90858 14.6487 6.61174 14.6808C6.80789 14.9213 7.03863 15.1368 7.29872 15.3202C7.88868 15.7364 8.60034 15.9672 9.33467 15.9807C9.66784 15.9868 9.96101 16.1914 10.067 16.492C10.173 16.7925 10.0689 17.1239 9.80706 17.3199C8.70409 18.1455 7.42867 18.7211 6.0772 19.015C7.19732 19.3562 8.37207 19.5319 9.56033 19.5305L9.56948 19.5305C11.0834 19.5455 12.5852 19.2734 13.9873 18.73C15.3894 18.1867 16.6637 17.383 17.7356 16.366C18.8075 15.349 19.6556 14.139 20.2305 12.8067C20.4523 12.2925 20.6317 11.764 20.7677 11.2261C20.9841 10.3703 21.0906 9.49065 21.0834 8.60639L21.0833 8.60052V8.07053C21.0833 7.88867 21.1528 7.71301 21.2788 7.57624C21.3516 7.4972 21.479 7.31464 21.6567 7.01674C21.8256 6.73362 22.0125 6.39371 22.2069 6.03453C22.2186 6.0128 22.2304 5.99097 22.2423 5.96903C21.7381 6.07318 21.1666 6.12777 20.5676 6.06618C20.3779 6.04668 20.202 5.96239 20.0727 5.82895C19.544 5.28362 18.84 4.92061 18.0711 4.79687C17.7299 4.74196 17.3175 4.75453 16.9042 4.82187C16.4552 4.89503 16.0644 5.02304 15.824 5.14522C15.1362 5.49479 14.5898 6.05163 14.2705 6.72842C13.9512 7.4052 13.8771 8.16365 14.0599 8.88481C14.1181 9.11472 14.0589 9.3573 13.9002 9.53933C13.7415 9.72136 13.5018 9.82151 13.2535 9.80957C12.3668 9.76691 11.4896 9.63826 10.635 9.42699C9.73101 9.2035 8.85242 8.88755 8.015 8.48314C6.78208 7.88773 5.65925 7.11063 4.68698 6.18294C4.64263 6.39855 4.62011 6.61858 4.62027 6.84003L4.62026 6.84195C4.61917 7.39267 4.76125 7.9351 5.03385 8.42095C5.30646 8.9068 5.70114 9.32099 6.18274 9.62664C6.47502 9.81214 6.60299 10.1592 6.49655 10.4777C6.3901 10.7963 6.07493 11.0093 5.72369 11.0002C5.40558 10.992 5.09013 10.9552 4.7814 10.8909Z" fill="#828282"/>
</svg>
